<svg viewBox="-60 0 512 512.00002" xmlns="http://www.w3.org/2000/svg"><path d="m33.796875 489.210938v-466.417969c0-8.410157 6.816406-15.226563 15.226563-15.226563h319.964843c8.40625 0 15.226563 6.816406 15.226563 15.226563v466.417969c0 8.40625-6.816406 15.222656-15.226563 15.222656h-319.96875c-8.40625 0-15.222656-6.816406-15.222656-15.222656zm0 0" fill="#91aee2"/><path d="m335.851562 21.832031v332.734375c0 .515625-.199218 1.007813-.574218 1.371094l-120.5625 116.585938c-.351563.34375-.828125.535156-1.320313.535156h-191.5625c-7.871093 0-14.261719-6.390625-14.261719-14.273438v-436.953125c0-7.882812 6.390626-14.261719 14.261719-14.261719h299.757813c7.882812 0 14.261718 6.378907 14.261718 14.261719zm0 0" fill="#bebebe"/><path d="m335.851562 21.832031v332.734375c0 .535156-.234374 1.054688-.574218 1.371094l-120.5625 116.585938c-.34375.34375-.855469.535156-1.320313.535156h-149.105469c-7.875 0-14.265624-6.390625-14.265624-14.273438v-436.953125c0-7.882812 6.390624-14.261719 14.265624-14.261719h257.300782c7.882812 0 14.261718 6.378907 14.261718 14.261719zm0 0" fill="#ebebf0"/><path d="m335.671875 355.375c-.09375.210938-.222656.402344-.394531.5625l-120.5625 116.585938c-.160156.160156-.351563.28125-.554688.371093v-103.398437c0-7.804688 6.320313-14.121094 14.121094-14.121094zm0 0" fill="#bebebe"/><g fill="#4172cc"><path d="m304.492188 88.539062-47.152344-30.109374c-6.609375-4.222657-15.421875-2.277344-19.648438 4.332031-4.21875 6.613281-2.277344 15.425781 4.335938 19.648437l28.828125 18.410156-29.09375 19.507813c-3.15625 2.117187-5.300781 5.335937-6.035157 9.0625-.734374 3.730469.023438 7.519531 2.140626 10.675781 2.648437 3.949219 7.066406 6.304688 11.824218 6.304688h.003906c2.824219 0 5.558594-.832032 7.910157-2.410156l47.152343-31.617188c4-2.683594 6.355469-7.15625 6.304688-11.972656-.054688-4.816406-2.511719-9.238282-6.570312-11.832032zm0 0"/><path d="m101.664062 120.328125-29.097656-19.507813 28.832032-18.410156c6.609374-4.222656 8.554687-13.035156 4.332031-19.648437-4.222657-6.609375-13.035157-8.554688-19.648438-4.332031l-47.148437 30.109374c-4.058594 2.59375-6.515625 7.015626-6.570313 11.832032-.054687 4.816406 2.300781 9.292968 6.300781 11.972656l47.152344 31.617188c2.351563 1.578124 5.089844 2.410156 7.914063 2.410156 4.757812 0 9.175781-2.355469 11.824219-6.304688 2.117187-3.15625 2.878906-6.945312 2.140624-10.675781-.734374-3.726563-2.875-6.945313-6.03125-9.0625zm0 0"/><path d="m203.289062 59.023438c-3.042968-2.273438-6.792968-3.226563-10.550781-2.683594-3.761719.542968-7.085937 2.519531-9.359375 5.566406l-46.125 61.722656c-2.273437 3.042969-3.226562 6.792969-2.683594 10.554688.542969 3.761718 2.519532 7.082031 5.5625 9.359375 2.480469 1.851562 5.421876 2.828125 8.507813 2.828125 4.46875 0 8.734375-2.132813 11.40625-5.710938l46.121094-61.722656c2.277343-3.046875 3.230469-6.792969 2.6875-10.554688-.542969-3.761718-2.519531-7.085937-5.566407-9.359374zm0 0"/><path d="m7.570312 188.179688h328.28125v141.503906h-328.28125zm0 0"/></g><path d="m7.570312 188.179688h42.453126v141.503906h-42.453126zm0 0" fill="#2e5aac"/><path d="m384.210938 431.613281c4.179687 0 7.570312-3.390625 7.570312-7.570312v-401.25c0-12.566407-10.222656-22.792969-22.789062-22.792969-105.628907 0-235.15625 0-347.160157 0-12.039062 0-21.832031 9.792969-21.832031 21.832031v225.730469c0 4.1875 3.390625 7.570312 7.570312 7.570312 4.179688 0 7.570313-3.382812 7.570313-7.570312v-51.808594h194.304687c4.183594 0 7.574219-3.390625 7.574219-7.570312 0-4.179688-3.390625-7.570313-7.574219-7.570313h-194.304687v-158.78125c0-3.695312 2.996094-6.691406 6.691406-6.691406h299.757813c3.695312 0 6.691406 2.996094 6.691406 6.691406v158.78125h-88.550781c-4.183594 0-7.570313 3.390625-7.570313 7.570313 0 4.179687 3.386719 7.570312 7.570313 7.570312h88.550781v126.359375h-313.140625v-44.269531c0-4.179688-3.390625-7.570312-7.570313-7.570312-4.179687 0-7.570312 3.390624-7.570312 7.570312v180.941406c0 12.042969 9.792969 21.84375 21.832031 21.84375h4.390625v8.578125c0 12.566407 10.226563 22.792969 22.804688 22.792969h319.964844c12.566406 0 22.789062-10.226562 22.789062-22.792969v-34.882812c0-4.179688-3.390625-7.570313-7.570312-7.570313-4.179688 0-7.570313 3.390625-7.570313 7.570313v34.882812c0 4.21875-3.429687 7.652344-7.648437 7.652344h-319.964844c-4.230469 0-7.664063-3.433594-7.664063-7.652344v-8.578125h172.03125c4.261719 0 6.355469-2.367187 9.253907-5.25 21.253906-20.546875 104.613281-101.160156 117.886718-114 1.835938-1.777344 2.886719-4.257812 2.886719-6.8125 0-12.210937 0-320.179687 0-332.734375 0-2.332031-.363281-4.582031-1.050781-6.691406h26.621094c4.21875 0 7.648437 3.433594 7.648437 7.652344v401.25c0 4.179687 3.390625 7.570312 7.570313 7.570312zm-162.480469 23.589844v-85.707031c0-3.613282 2.9375-6.550782 6.550781-6.550782h88.855469c-180.363281 174.421876 5.441406-5.261718-95.40625 92.257813zm106.550781-107.398437h-100c-11.960938 0-21.691406 9.730468-21.691406 21.691406v95.992187c-9.390625 0-176.195313 0-184.757813 0-3.695312 0-6.691406-3.007812-6.691406-6.703125v-121.53125h313.140625zm0 0"/><path d="m249.695312 153.941406c4.328126 0 8.523438-1.277344 12.128907-3.691406l47.148437-31.617188c13.03125-8.734374 12.851563-28.007812-.402344-36.472656 0 0 0 0-.003906 0l-47.148437-30.109375c-10.125-6.46875-23.632813-3.492187-30.101563 6.640625-6.46875 10.128906-3.492187 23.632813 6.640625 30.097656l19.078125 12.1875-19.488281 13.066407c-17.960937 12.039062-9.15625 39.902343 12.148437 39.898437zm-3.71875-27.324218 29.097657-19.511719c4.523437-3.035157 4.457031-9.730469-.144531-12.667969l-28.828126-18.410156c-3.09375-1.976563-4.003906-6.097656-2.03125-9.191406 1.972657-3.082032 6.089844-4.007813 9.195313-2.027344l47.152344 30.109375c4.035156 2.578125 4.109375 8.464843.121093 11.140625-49.125 32.476562-47.265624 32.742187-50.847656 32.742187-6.539062 0-9.1875-8.515625-3.714844-12.183593zm0 0"/><path d="m112.109375 58.6875c-6.464844-10.128906-19.964844-13.105469-30.101563-6.640625l-47.148437 30.113281c-13.246094 8.457032-13.445313 27.730469-.40625 36.472656l47.148437 31.617188c3.605469 2.414062 7.800782 3.691406 12.132813 3.691406 21.34375 0 30.078125-27.875 12.144531-39.898437l-19.488281-13.066407 19.082031-12.1875c10.128906-6.46875 13.105469-19.972656 6.636719-30.101562zm-14.785156 17.339844-28.832031 18.410156c-4.59375 2.9375-4.671876 9.632812-.140626 12.671875 28.699219 19.980469 30.988282 19.023437 31.917969 23.75 1.136719 5.765625-5.292969 10.125-10.234375 6.8125l-47.152344-31.613281c-3.996093-2.679688-3.910156-8.5625.125-11.136719 49.019532-30.855469 47.097657-31.15625 50.722657-31.15625 6.652343 0 9.171875 8.699219 3.59375 12.261719zm0 0"/><path d="m177.316406 57.371094-46.125 61.726562c-3.484375 4.664063-4.945312 10.40625-4.113281 16.167969 2.761719 19.074219 27.402344 25.492187 39.03125 9.925781l46.125-61.726562c3.484375-4.664063 4.945313-10.40625 4.113281-16.167969-2.796875-19.316406-27.535156-25.316406-39.03125-9.925781zm-23.335937 78.757812c-3.542969 4.742188-11.074219 2.800782-11.917969-3.03125-.746094-5.148437.671875-3.050781 47.378906-66.664062 3.523438-4.707032 11.070313-2.847656 11.917969 3.03125.746094 5.148437-.664063 3.046875-47.378906 66.664062zm0 0"/><path d="m109.480469 233.722656c9.421875 0 9.753906 7.09375 9.863281 9.976563.222656 3.992187 3.992188 5.210937 8.644531 5.210937 5.875 0 8.648438-1.554687 8.648438-8.203125 0-14.078125-11.972657-22.058593-27.824219-22.058593-14.519531 0-26.601562 7.09375-26.601562 26.160156v29.375c0 19.066406 12.082031 26.160156 26.601562 26.160156 15.851562 0 27.824219-8.425781 27.824219-23.167969 0-6.652343-2.773438-8.203125-8.757813-8.203125-4.433594 0-8.203125 1.109375-8.535156 5.210938-.332031 4.324218-.886719 11.085937-9.753906 11.085937-6.429688 0-10.089844-3.546875-10.089844-11.085937v-29.375c.003906-7.539063 3.660156-11.085938 9.980469-11.085938zm0 0"/><path d="m170.21875 285.265625c-10.308594 0-13.636719-8.199219-18.84375-8.199219-4.210938 0-7.539062 5.539063-7.539062 9.308594 0 7.316406 12.195312 14.410156 26.714843 14.410156 16.070313 0 27.710938-8.644531 27.710938-24.605468 0-27.933594-35.136719-25.828126-35.136719-36.914063 0-3.433594 3.214844-6.648437 11.082031-6.648437 9.089844 0 11.195313 4.210937 15.1875 4.210937 4.878907 0 6.875-6.097656 6.875-9.089844 0-8.644531-16.183593-9.753906-22.0625-9.753906-13.855469 0-28.375 6.316406-28.375 22.945313 0 25.9375 35.136719 23.609374 35.136719 37.023437.003906 5.320313-5.652344 7.3125-10.75 7.3125zm0 0"/><path d="m231.621094 285.265625c-10.308594 0-13.632813-8.199219-18.84375-8.199219-4.210938 0-7.539063 5.539063-7.539063 9.308594 0 7.316406 12.195313 14.410156 26.71875 14.410156 16.070313 0 27.710938-8.644531 27.710938-24.605468 0-27.933594-35.140625-25.828126-35.140625-36.914063 0-3.433594 3.214844-6.648437 11.085937-6.648437 9.089844 0 11.195313 4.210937 15.183594 4.210937 4.878906 0 6.875-6.097656 6.875-9.089844 0-8.644531-16.183594-9.753906-22.058594-9.753906-13.859375 0-28.378906 6.316406-28.378906 22.945313 0 25.9375 35.140625 23.609374 35.140625 37.023437 0 5.320313-5.652344 7.3125-10.753906 7.3125zm0 0"/></svg>