<svg id="Capa_1" enable-background="new 0 0 512 512" height="512" viewBox="0 0 512 512" width="512" xmlns="http://www.w3.org/2000/svg"><g><g><path clip-rule="evenodd" d="m10 128.422h428.957v-72.578c0-10.583-8.682-19.237-19.265-19.237h-390.456c-10.583 0-19.236 8.654-19.236 19.237z" fill="#ff7d95" fill-rule="evenodd"/></g><g><path clip-rule="evenodd" d="m101.925 299.708h337.032v-171.286h-428.957v250.277c0 10.583 8.653 19.265 19.236 19.265h72.689z" fill="#fff" fill-rule="evenodd"/></g><g><path clip-rule="evenodd" d="m101.925 475.393h400.075v-175.685h-63.043-337.032v98.255z" fill="#a0e5a5" fill-rule="evenodd"/></g><g><path d="m502 289.708h-53.043v-233.864c0-16.121-13.128-29.237-29.265-29.237h-390.456c-16.121 0-29.236 13.116-29.236 29.237v322.854c0 16.137 13.115 29.265 29.236 29.265h62.689v67.43c0 5.523 4.477 10 10 10h45.027c5.523 0 10-4.477 10-10s-4.477-10-10-10h-35.027v-155.685h380.075v155.685h-255.137c-5.523 0-10 4.477-10 10s4.477 10 10 10h265.137c5.523 0 10-4.477 10-10v-175.685c0-5.522-4.477-10-10-10zm-472.764-243.101h390.456c5.108 0 9.265 4.144 9.265 9.237v62.578h-408.957v-62.578c0-5.094 4.144-9.237 9.236-9.237zm72.689 243.101c-5.523 0-10 4.477-10 10v88.255h-62.689c-5.093 0-9.236-4.156-9.236-9.265v-240.277h408.957v151.287z"/><path d="m339.343 92.514c5.523 0 10-4.477 10-10s-4.477-10-10-10h-.057c-5.523 0-9.972 4.477-9.972 10s4.506 10 10.029 10z"/><path d="m386.384 92.514c5.523 0 10-4.477 10-10s-4.477-10-10-10h-.028c-5.523 0-9.986 4.477-9.986 10s4.491 10 10.014 10z"/><path d="m292.302 92.514c5.523 0 10-4.477 10-10s-4.477-10-10-10h-.057c-5.523 0-9.971 4.477-9.971 10s4.505 10 10.028 10z"/><path d="m62.545 92.514h130.994c5.523 0 10-4.477 10-10s-4.477-10-10-10h-130.994c-5.523 0-10 4.477-10 10s4.477 10 10 10z"/><path d="m322.939 425.702 6.753-37.396 11.181 37.881c.033.111.067.221.104.331 1.596 4.788 6.037 7.987 11.071 7.987h.1c5.061-.042 9.483-3.316 11.004-8.146.027-.086.053-.173.078-.26l10.785-37.808 7.17 37.51c1.037 5.425 6.275 8.982 11.7 7.945s8.981-6.275 7.945-11.7l-13.76-71.982c-.007-.039-.015-.077-.022-.114-1.06-5.212-5.512-9.049-10.827-9.329-5.292-.277-10.118 3.055-11.714 8.11-.028.089-.055.179-.081.269l-12.523 43.902-12.984-43.99c-.033-.111-.067-.221-.104-.331-1.67-5.01-6.518-8.277-11.794-7.95-5.282.329-9.695 4.186-10.733 9.379-.012.061-.023.122-.035.183l-12.995 71.954c-.981 5.435 2.629 10.637 8.063 11.618 5.43.979 10.637-2.628 11.618-8.063z"/><path d="m432.545 340.609c-5.523 0-10 4.477-10 10v73.826c0 4.869 3.506 9.029 8.304 9.855.714.123 1.235.213 9.522.213 3.966 0 9.711-.021 18.105-.068 5.522-.031 9.975-4.534 9.943-10.057-.031-5.503-4.502-9.943-9.999-9.943-.019 0-.038 0-.058 0-4.823.027-10.852.052-15.818.06v-63.886c.001-5.523-4.476-10-9.999-10z"/><path d="m196.631 340.609c-5.523 0-10 4.477-10 10v25.665h-31.155v-25.665c0-5.523-4.477-10-10-10s-10 4.477-10 10v73.883c0 5.523 4.477 10 10 10s10-4.477 10-10v-28.218h31.155v28.218c0 5.523 4.477 10 10 10s10-4.477 10-10v-73.883c0-5.523-4.477-10-10-10z"/><path d="m257.263 434.492c5.523 0 10-4.477 10-10v-63.883h10.484c5.523 0 10-4.477 10-10s-4.477-10-10-10h-40.827c-5.523 0-10 4.477-10 10s4.477 10 10 10h10.343v63.883c0 5.523 4.477 10 10 10z"/><path d="m148.357 164.028c-5.391-1.2-10.733 2.2-11.933 7.591l-18.272 82.168c-1.199 5.391 2.2 10.733 7.591 11.933.731.163 1.461.24 2.18.24 4.583 0 8.716-3.171 9.752-7.831l18.272-82.168c1.199-5.392-2.199-10.734-7.59-11.933z"/><path d="m90.089 173.295c-4.253-3.523-10.558-2.932-14.08 1.322l-28.06 33.877c-3.065 3.7-3.065 9.057 0 12.758l28.06 33.877c1.978 2.388 4.831 3.622 7.707 3.622 2.247 0 4.508-.754 6.374-2.299 4.253-3.523 4.845-9.827 1.322-14.08l-22.776-27.499 22.776-27.498c3.523-4.253 2.931-10.557-1.323-14.08z"/><path d="m198.062 174.618c-3.523-4.254-9.828-4.846-14.08-1.322-4.253 3.523-4.845 9.827-1.322 14.08l22.776 27.498-22.776 27.499c-3.523 4.253-2.931 10.557 1.322 14.08 1.866 1.546 4.126 2.299 6.374 2.299 2.875 0 5.729-1.234 7.707-3.622l28.06-33.877c3.065-3.7 3.065-9.058 0-12.758z"/><path d="m315.312 201.438h77.966c5.523 0 10-4.477 10-10s-4.477-10-10-10h-77.966c-5.523 0-10 4.477-10 10s4.477 10 10 10z"/><path d="m258.681 201.438h16.598c5.523 0 10-4.477 10-10s-4.477-10-10-10h-16.598c-5.523 0-10 4.477-10 10s4.477 10 10 10z"/><path d="m336.647 232.708h-77.966c-5.523 0-10 4.477-10 10s4.477 10 10 10h77.966c5.523 0 10-4.477 10-10s-4.477-10-10-10z"/><path d="m393.278 232.708h-16.598c-5.523 0-10 4.477-10 10s4.477 10 10 10h16.598c5.523 0 10-4.477 10-10s-4.477-10-10-10z"/><path d="m191.893 465.393c-5.523 0-10 4.477-10 10s4.477 10 10 10h.057c5.523 0 9.971-4.477 9.971-10s-4.505-10-10.028-10z"/></g></g></svg>