<svg viewBox="-60 0 512 512.00002" xmlns="http://www.w3.org/2000/svg"><path d="m33.796875 489.210938v-466.417969c0-8.410157 6.816406-15.226563 15.226563-15.226563h319.964843c8.40625 0 15.226563 6.816406 15.226563 15.226563v466.417969c0 8.40625-6.816406 15.222656-15.226563 15.222656h-319.96875c-8.40625 0-15.222656-6.816406-15.222656-15.222656zm0 0" fill="#6e9213"/><path d="m335.851562 21.832031v332.734375c0 .515625-.199218 1.007813-.574218 1.371094l-120.5625 116.585938c-.351563.34375-.828125.535156-1.320313.535156h-191.5625c-7.871093 0-14.261719-6.390625-14.261719-14.273438v-436.953125c0-7.882812 6.390626-14.261719 14.261719-14.261719h299.757813c7.882812 0 14.261718 6.378907 14.261718 14.261719zm0 0" fill="#bebebe"/><path d="m335.851562 21.832031v332.734375c0 .535156-.238281 1.054688-.574218 1.371094l-120.5625 116.585938c-.34375.34375-.855469.535156-1.320313.535156h-149.105469c-7.875 0-14.265624-6.390625-14.265624-14.273438v-436.953125c0-7.882812 6.390624-14.261719 14.265624-14.261719h257.300782c7.882812 0 14.261718 6.378907 14.261718 14.261719zm0 0" fill="#ebebf0"/><path d="m335.671875 355.375c-.09375.210938-.222656.402344-.394531.5625l-120.5625 116.585938c-.160156.160156-.351563.28125-.554688.371093v-103.398437c0-7.804688 6.320313-14.121094 14.121094-14.121094zm0 0" fill="#bebebe"/><path d="m7.570312 188.179688h328.28125v141.503906h-328.28125zm0 0" fill="#84b017"/><path d="m7.570312 188.179688h42.453126v141.503906h-42.453126zm0 0" fill="#6e9213"/><g fill="#84b017"><path d="m67.144531 82.0625c0-3.304688-2.363281-14.328125-2.363281-19.523438 0-14.332031 17.792969-27.558593 34.484375-27.558593 10.867187 0 13.699219 5.667969 13.699219 10.707031 0 4.566406-2.359375 9.921875-7.398438 9.921875-4.726562 0-16.21875 1.730469-16.21875 10.234375 0 3.78125 2.359375 15.589844 2.359375 19.371094 0 4.722656-3.777343 9.605468-5.667969 10.234375 2.207032.628906 5.667969 5.195312 5.667969 10.078125 0 3.933594-2.359375 21.414062-2.359375 24.5625 0 6.773437 10.707032 8.347656 16.21875 8.347656 5.824219 0 7.398438 6.296875 7.398438 10.234375 0 7.089844-4.878906 10.394531-14.015625 10.394531-16.53125 0-34.171875-10.707031-34.171875-25.824218 0-5.511719 2.363281-21.261719 2.363281-24.722657 0-6.773437-9.445313-2.363281-9.445313-13.542969 0-11.023437 9.449219-6.457031 9.449219-12.914062zm0 0"/><path d="m184.929688 46.160156c0 5.984375-5.667969 11.339844-12.753907 11.339844-7.246093 0-12.914062-5.355469-12.914062-11.339844s5.667969-11.179687 12.914062-11.179687c7.085938 0 12.753907 5.195312 12.753907 11.179687zm-.472657 42.203125v59.996094c0 3.777344-5.511719 7.558594-12.28125 7.558594-7.085937 0-12.125-3.78125-12.125-7.558594v-59.996094c0-4.410156 5.039063-7.402343 12.125-7.402343 6.769531 0 12.28125 2.992187 12.28125 7.402343zm0 0"/><path d="m277.207031 108.519531c0 3.464844 2.359375 19.210938 2.359375 24.722657 0 15.117187-17.636718 25.824218-34.171875 25.824218-9.132812 0-14.011719-3.304687-14.011719-10.390625 0-3.9375 1.574219-10.238281 7.398438-10.238281 5.511719 0 16.21875-1.574219 16.21875-8.34375 0-3.152344-2.359375-20.628906-2.359375-24.566406 0-4.882813 3.464844-9.449219 5.667969-10.078125-1.890625-.628907-5.667969-5.511719-5.667969-10.234375 0-3.78125 2.359375-15.589844 2.359375-19.371094 0-8.5-11.496094-10.234375-16.21875-10.234375-5.039062 0-7.398438-5.355469-7.398438-9.921875 0-5.039062 2.832032-10.707031 13.699219-10.707031 16.691407 0 34.484375 13.226562 34.484375 27.558593 0 5.195313-2.363281 16.21875-2.363281 19.527344 0 6.453125 9.449219 1.886719 9.449219 12.910156 0 11.179688-9.445313 6.769532-9.445313 13.542969zm0 0"/></g><path d="m138.808594 285.265625c-8.867188 0-9.421875-6.761719-9.753906-11.082031-.332032-4.101563-4.101563-5.210938-8.535157-5.210938-5.988281 0-8.757812 1.550782-8.757812 8.203125 0 14.742188 11.96875 23.167969 27.820312 23.167969 14.523438 0 26.605469-7.09375 26.605469-26.160156v-50.214844c0-3.546875-3.769531-5.320312-7.539062-5.320312h-19.398438c-7.074219 0-6.851562 15.074218 0 15.074218h9.644531v40.457032c0 7.539062-3.65625 11.085937-10.085937 11.085937zm0 0"/><path d="m202.652344 285.265625c-10.308594 0-13.636719-8.199219-18.84375-8.199219-4.214844 0-7.539063 5.539063-7.539063 9.308594 0 16.550781 54.425781 25.261719 54.425781-10.195312 0-27.933594-35.140624-25.828126-35.140624-36.914063 0-3.433594 3.214843-6.648437 11.085937-6.648437 9.089844 0 11.195313 4.210937 15.1875 4.210937 4.875 0 6.871094-6.097656 6.871094-9.089844 0-8.644531-16.183594-9.753906-22.058594-9.753906-13.855469 0-28.375 6.316406-28.375 22.945313 0 25.9375 35.136719 23.609374 35.136719 37.023437 0 5.320313-5.652344 7.3125-10.75 7.3125zm0 0"/><path d="m384.210938 431.613281c4.179687 0 7.570312-3.390625 7.570312-7.570312v-401.25c0-12.566407-10.222656-22.792969-22.789062-22.792969-177.660157 0 7.804687 0-347.160157 0-12.039062 0-21.832031 9.792969-21.832031 21.832031v225.730469c0 4.1875 3.390625 7.570312 7.570312 7.570312 4.179688 0 7.570313-3.382812 7.570313-7.570312v-51.808594h194.304687c4.183594 0 7.574219-3.390625 7.574219-7.570312 0-4.179688-3.390625-7.570313-7.574219-7.570313h-194.304687v-158.78125c0-3.695312 2.996094-6.691406 6.691406-6.691406h299.757813c3.695312 0 6.691406 2.996094 6.691406 6.691406v158.78125h-88.550781c-4.183594 0-7.570313 3.390625-7.570313 7.570313 0 4.179687 3.386719 7.570312 7.570313 7.570312h88.550781v126.359375h-313.140625v-44.269531c0-4.179688-3.390625-7.570312-7.570313-7.570312-4.179687 0-7.570312 3.390624-7.570312 7.570312v51.835938.003906.007812 129.09375c0 12.042969 9.792969 21.84375 21.832031 21.84375h4.390625v8.578125c0 12.566407 10.226563 22.792969 22.804688 22.792969h319.964844c12.566406 0 22.789062-10.226562 22.789062-22.792969v-34.882812c0-4.179688-3.390625-7.570313-7.570312-7.570313-4.179688 0-7.570313 3.390625-7.570313 7.570313v34.882812c0 4.21875-3.429687 7.652344-7.648437 7.652344h-319.964844c-4.230469 0-7.664063-3.433594-7.664063-7.652344v-8.578125h172.03125c2.472657 0 4.804688-.949218 6.578125-2.664062 6.621094-6.40625 119.242188-115.308594 120.5625-116.585938 1.835938-1.777344 2.886719-4.257812 2.886719-6.8125v-24.816406c0-.023438.003906-.042969.003906-.066406 0-.019532-.003906-.039063-.003906-.0625v-141.375c0-.019532.003906-.042969.003906-.0625 0-.019532-.003906-.042969-.003906-.0625v-166.289063c0-2.332031-.363281-4.582031-1.050781-6.691406h26.621094c4.21875 0 7.648437 3.433594 7.648437 7.652344v401.25c0 4.179687 3.390625 7.570312 7.570313 7.570312zm-162.480469 23.589844v-85.707031c0-3.613282 2.9375-6.550782 6.550781-6.550782h88.855469c-180.351563 174.410157 5.421875-5.242187-95.40625 92.257813zm106.550781-107.398437h-100c-11.960938 0-21.691406 9.730468-21.691406 21.691406v95.992187c-9.390625 0-176.195313 0-184.757813 0-3.695312 0-6.691406-3.007812-6.691406-6.703125v-121.53125h313.140625zm0 0"/><path d="m219.976562 477.964844h-.003906c-.402344.390625-.429687.417968.003906 0zm0 0"/><path d="m105.566406 63.179688c8.535156 0 14.972656-7.519532 14.972656-17.492188 0-8.433594-5.570312-18.277344-21.269531-18.277344-19.453125 0-42.058593 15.34375-42.058593 35.128906 0 4.785157 1.445312 12.28125 2.136718 17.351563-3.453125 1.53125-9.222656 4.988281-9.222656 15.085937 0 10.339844 6.039062 13.84375 9.316406 15.390626-.574218 6.027343-2.230468 17.675781-2.230468 22.875 0 34.40625 63.324218 46.710937 63.324218 15.429687 0-10.484375-6.15625-17.804687-14.96875-17.804687-3.8125 0-7.222656-.855469-8.601562-1.613282 1.296875-17.195312 4.753906-24.941406-.59375-33.980468 1.78125-3.082032 2.90625-6.6875 2.90625-10.0625 0-4.441407-2.359375-16.484376-2.359375-19.367188 0-.152344.019531-.214844.015625-.214844.484375-.96875 4.542968-2.449218 8.632812-2.449218zm-23.789062 2.664062c0 4.445312 2.359375 16.484375 2.359375 19.371094 0 1.113281-.976563 2.816406-1.625 3.535156-5.546875 2.921875-5.324219 10.953125.359375 13.574219.515625.605469 1.265625 1.984375 1.265625 3.203125 0 3.375-2.359375 20.746094-2.359375 24.566406 0 9.523438 9.0625 15.730469 23.164062 15.910156.394532 1.011719.796875 3.8125 0 4.394532-.355468.257812-1.835937 1.097656-5.992187 1.097656-12.554688 0-26.597657-7.804688-26.597657-18.253906 0-21.066407 8.761719-28.394532-6.964843-36.820313-.152344-.691406-.15625-1.921875-.042969-2.628906 15.730469-7.15625 7.007812-16.660157 7.007812-31.253907 0-9.527343 14.085938-19.988281 26.914063-19.988281 6.128906 0 6.128906 1.964844 6.128906 3.136719 0 1.015625-.257812 1.878906-.484375 2.355469-11.265625.210937-23.132812 5.800781-23.132812 17.800781zm0 0"/><path d="m152.480469 88.363281v59.996094c0 8.484375 8.652343 15.128906 19.695312 15.128906 10.945313 0 19.851563-6.789062 19.851563-15.128906v-59.996094c0-19.777343-39.546875-20.171875-39.546875 0zm24.40625 58.746094c-2.515625 1.679687-7.078125 1.566406-9.265625.132813v-57.890626c2.230468-1.085937 6.867187-1.136718 9.265625.105469zm0 0"/><path d="m172.175781 27.410156c-11.292969 0-20.484375 8.410156-20.484375 18.75 0 10.425782 9.191406 18.910156 20.484375 18.910156 11.015625 0 20.324219-8.660156 20.324219-18.910156 0-10.339844-9.117188-18.75-20.324219-18.75zm0 22.519532c-3.261719 0-5.34375-2.230469-5.34375-3.769532 0-1.507812 2.035157-3.609375 5.34375-3.609375 2.921875 0 5.183594 1.941407 5.183594 3.609375 0 1.535156-2.019531 3.769532-5.183594 3.769532zm0 0"/><path d="m223.8125 148.671875c0 31.261719 63.324219 19.003906 63.324219-15.429687 0-5.21875-1.636719-16.671876-2.230469-22.875 3.28125-1.546876 9.316406-5.050782 9.316406-15.390626 0-10.097656-5.769531-13.554687-9.21875-15.085937.679688-5.019531 2.132813-12.582031 2.132813-17.351563 0-19.785156-22.605469-35.128906-42.054688-35.128906-15.703125 0-21.269531 9.847656-21.269531 18.277344 0 9.972656 6.433594 17.492188 14.96875 17.492188 4.089844 0 8.148438 1.484374 8.628906 2.445312 0 0 .019532.0625.019532.21875 0 2.832031-2.359376 14.886719-2.359376 19.371094 0 3.371094 1.125 6.976562 2.90625 10.058594-5.269531 8.910156-1.996093 15.558593-.589843 33.984374-1.378907.757813-4.792969 1.609376-8.605469 1.609376-8.8125 0-14.96875 7.320312-14.96875 17.804687zm15.59375-2.667969c14.09375-.179687 23.164062-6.382812 23.164062-15.914062 0-1.820313-.40625-5.539063-1.128906-11.957032-1.378906-12.277343-1.816406-13.644531.039063-15.808593 5.675781-2.617188 5.914062-10.648438.355469-13.574219-.648438-.71875-1.625-2.421875-1.625-3.539062 0-2.832032 2.359374-14.882813 2.359374-19.367188 0-12-11.867187-17.59375-23.132812-17.800781-.230469-.480469-.484375-1.34375-.484375-2.355469 0-1.171875 0-3.136719 6.128906-3.136719 12.828125 0 26.914063 10.460938 26.914063 19.988281 0 2.304688-.714844 6.894532-1.289063 10.582032-.664062 4.269531-1.070312 6.988281-1.070312 8.941406 0 6.898438 4.136719 9.351562 9.367187 11.726562.113282.710938.109375 1.941407-.042968 2.628907-15.675782 8.402343-6.960938 15.390625-6.960938 36.824219 0 10.445312-14.042969 18.253906-26.601562 18.253906-4.152344 0-5.636719-.839844-5.992188-1.097656-.800781-.585938-.394531-3.378907 0-4.394532zm0 0"/></svg>